<svg id="visual" viewBox="0 0 1980 1080" width="1980" height="1080" xmlns="http://www.w3.org/2000/svg" xmlns:xlink="http://www.w3.org/1999/xlink" version="1.1"><rect x="0" y="0" width="1980" height="1080" fill="#002233"></rect><path d="M757 1080L797 1054.3C837 1028.7 917 977.3 971.8 925.8C1026.7 874.3 1056.3 822.7 1035.3 771.2C1014.3 719.7 942.7 668.3 961 617C979.3 565.7 1087.7 514.3 1082.8 463C1078 411.7 960 360.3 920.8 308.8C881.7 257.3 921.3 205.7 899 154.2C876.7 102.7 792.3 51.3 750.2 25.7L708 0L1980 0L1980 25.7C1980 51.3 1980 102.7 1980 154.2C1980 205.7 1980 257.3 1980 308.8C1980 360.3 1980 411.7 1980 463C1980 514.3 1980 565.7 1980 617C1980 668.3 1980 719.7 1980 771.2C1980 822.7 1980 874.3 1980 925.8C1980 977.3 1980 1028.7 1980 1054.3L1980 1080Z" fill="#0066FF" stroke-linecap="round" stroke-linejoin="miter"></path></svg>